<svg width="13" height="17" viewBox="0 0 13 17" fill="none" xmlns="http://www.w3.org/2000/svg">
<path d="M12.5 8C12.7455 8 12.9496 8.17688 12.9919 8.41012L13 8.5V14.5C13 15.8255 11.9685 16.91 10.6644 16.9947L10.5 17H2.5C1.17452 17 0.0899613 15.9685 0.00531769 14.6644L0 14.5V8.5C0 8.22386 0.223858 8 0.5 8C0.74546 8 0.949608 8.17688 0.991944 8.41012L1 8.5V14.5C1 15.2797 1.59489 15.9204 2.35554 15.9931L2.5 16H10.5C11.2797 16 11.9204 15.4051 11.9931 14.6445L12 14.5V8.5C12 8.22386 12.2239 8 12.5 8ZM1.90381 4.88909L6.14645 0.646447C6.32001 0.47288 6.58944 0.453595 6.78431 0.588591L6.85355 0.646447L11.0962 4.88909C11.2915 5.08435 11.2915 5.40093 11.0962 5.59619C10.9226 5.76976 10.6532 5.78905 10.4583 5.65405L10.3891 5.59619L7 2.207V11.5C7 11.7455 6.82312 11.9496 6.58988 11.9919L6.5 12C6.25454 12 6.05039 11.8231 6.00806 11.5899L6 11.5V2.207L2.61091 5.59619C2.43735 5.76976 2.16792 5.78905 1.97305 5.65405L1.90381 5.59619C1.73024 5.42263 1.71095 5.1532 1.84595 4.95834L1.90381 4.88909L6.14645 0.646447L1.90381 4.88909Z" fill="#0078D4"/>
</svg>
