<svg width="22" height="21" viewBox="0 0 22 21" fill="none" xmlns="http://www.w3.org/2000/svg">
<path d="M17.2493 5C17.2493 5.69036 16.6896 6.25 15.9993 6.25C15.3089 6.25 14.7493 5.69036 14.7493 5C14.7493 4.30964 15.3089 3.75 15.9993 3.75C16.6896 3.75 17.2493 4.30964 17.2493 5ZM14.4992 0.0499878C10.885 0.0499878 7.94922 2.98577 7.94922 6.59999C7.94922 6.9872 7.99939 7.36035 8.05968 7.704C8.07749 7.80547 8.04493 7.89362 7.99046 7.94809L1.75467 14.1839C1.23895 14.6996 0.949219 15.3991 0.949219 16.1284V18.3C0.949219 19.2665 1.73272 20.05 2.69922 20.05H5.19922C6.16572 20.05 6.94922 19.2665 6.94922 18.3V17.05H8.69922C9.38957 17.05 9.94922 16.4903 9.94922 15.8V14.05H11.6992C12.3741 14.05 12.9241 13.5151 12.9484 12.8462C13.4451 12.974 13.9689 13.05 14.4992 13.05C18.1134 13.05 21.0492 10.1142 21.0492 6.49999C21.0492 2.86884 18.0963 0.0499878 14.4992 0.0499878ZM9.44922 6.59999C9.44922 3.8142 11.7134 1.54999 14.4992 1.54999C17.3021 1.54999 19.5492 3.73114 19.5492 6.49999C19.5492 9.28577 17.285 11.55 14.4992 11.55C13.8199 11.55 13.1206 11.3789 12.4947 11.1106C12.2629 11.0113 11.9968 11.0351 11.7864 11.1739C11.5759 11.3126 11.4492 11.5479 11.4492 11.8V12.55H9.69922C9.00886 12.55 8.44922 13.1096 8.44922 13.8V15.55H6.69922C6.00886 15.55 5.44922 16.1096 5.44922 16.8V18.3C5.44922 18.4381 5.33729 18.55 5.19922 18.55H2.69922C2.56115 18.55 2.44922 18.4381 2.44922 18.3V16.1284C2.44922 15.7969 2.58091 15.479 2.81534 15.2445L9.05112 9.00875C9.46949 8.59037 9.63487 8.00197 9.53712 7.44479C9.48344 7.13883 9.44922 6.86239 9.44922 6.59999Z" fill="#919191"/>
</svg>
