<svg width="79" height="80" viewBox="0 0 79 80" fill="none" xmlns="http://www.w3.org/2000/svg">
<path d="M5.3479 1.69374C4.20075 0.546562 2.34082 0.546543 1.19365 1.6937C0.0464702 2.84085 0.0464513 4.70077 1.1936 5.84795L7.33086 11.9853C3.17973 14.0822 0.333252 18.3858 0.333252 23.3542V56.6458C0.333252 63.676 6.03229 69.375 13.0624 69.375H42.4374C48.486 69.375 53.5493 65.1562 54.8452 59.5006L73.6511 78.3069C74.7982 79.454 76.6581 79.4541 77.8053 78.3069C78.9525 77.1598 78.9525 75.2998 77.8054 74.1527L5.3479 1.69374Z" fill="#979593"/>
<path d="M59.0833 47.1215L76.7248 64.7634C77.8864 64.0838 78.6666 62.8232 78.6666 61.3803V18.6188C78.6666 17.6894 78.3361 16.7904 77.7343 16.0823C76.3334 14.434 73.8617 14.2335 72.2134 15.6344L59.0833 26.7928V47.1215Z" fill="#979593"/>
<path d="M22.5875 10.625L55.1666 43.2047V23.3542C55.1666 16.3241 49.4675 10.625 42.4374 10.625H22.5875Z" fill="#979593"/>
</svg>
