<svg width="28" height="24" viewBox="0 0 28 24" fill="none" xmlns="http://www.w3.org/2000/svg">
<path d="M3.5 3.5C3.5 1.84315 4.84315 0.5 6.5 0.5H22.5C24.1569 0.5 25.5 1.84315 25.5 3.5V13.5C25.5 15.1569 24.1569 16.5 22.5 16.5H14.5V14.5H22.5C23.0523 14.5 23.5 14.0523 23.5 13.5V3.5C23.5 2.94772 23.0523 2.5 22.5 2.5H6.5C5.94772 2.5 5.5 2.94772 5.5 3.5H4.5C4.1547 3.5 3.81962 3.54375 3.5 3.62602V3.5ZM26.4995 20.5H14.4995V18.5H26.4995C27.0518 18.5 27.4995 18.9477 27.4995 19.5C27.4995 20.0523 27.0518 20.5 26.4995 20.5ZM6.5 20.5C7.05228 20.5 7.5 20.0523 7.5 19.5C7.5 18.9477 7.05228 18.5 6.5 18.5C5.94772 18.5 5.5 18.9477 5.5 19.5C5.5 20.0523 5.94772 20.5 6.5 20.5ZM0.5 8.5C0.5 6.84315 1.84315 5.5 3.5 5.5H9.5C11.1569 5.5 12.5 6.84315 12.5 8.5V20.5C12.5 22.1569 11.1569 23.5 9.5 23.5H3.5C1.84315 23.5 0.5 22.1569 0.5 20.5V8.5ZM3.5 7.5C2.94772 7.5 2.5 7.94772 2.5 8.5V20.5C2.5 21.0523 2.94772 21.5 3.5 21.5H9.5C10.0523 21.5 10.5 21.0523 10.5 20.5V8.5C10.5 7.94772 10.0523 7.5 9.5 7.5H3.5Z" fill="#919191"/>
</svg>
