<svg width="94" height="96" viewBox="0 0 94 96" fill="none" xmlns="http://www.w3.org/2000/svg">
<g opacity="0.9">
<path d="M27.962 32.7637V47.5949C27.962 58.1093 36.4856 66.6329 47 66.6329C51.1838 66.6329 55.0524 65.2833 58.1942 62.9958L63.802 68.6037C59.1645 72.2156 53.3335 74.3671 47 74.3671C31.8856 74.3671 19.6329 62.1144 19.6329 47C19.6329 45.3571 18.3011 44.0253 16.6582 44.0253C15.0154 44.0253 13.6835 45.3571 13.6835 47C13.6835 64.1943 26.7087 78.3463 43.4304 80.1275V92.2152C43.4304 93.8581 44.7622 95.1899 46.4051 95.1899C48.0479 95.1899 49.3797 93.8581 49.3797 92.2152V80.2328C56.4302 79.7352 62.8749 77.0439 68.0356 72.8372L88.9219 93.7235C90.0836 94.8852 91.967 94.8852 93.1287 93.7235C94.2904 92.5619 94.2904 90.6784 93.1287 89.5167L5.0781 1.46607C3.91642 0.304384 2.03295 0.304384 0.871265 1.46607C-0.290422 2.62776 -0.290422 4.51122 0.871265 5.67291L27.962 32.7637Z" fill="#D2D0CE"/>
<path d="M71.4108 59.3851L75.7948 63.7692C78.6694 58.8438 80.3165 53.1142 80.3165 47C80.3165 45.3571 78.9846 44.0253 77.3418 44.0253C75.6989 44.0253 74.3671 45.3571 74.3671 47C74.3671 51.4576 73.3014 55.6663 71.4108 59.3851Z" fill="#D2D0CE"/>
<path d="M28.1791 16.1535L65.2056 53.1799C65.7468 51.4138 66.038 49.5384 66.038 47.5949V19.038C66.038 8.52359 57.5144 0 47 0C37.4662 0 29.5692 7.00788 28.1791 16.1535Z" fill="#D2D0CE"/>
</g>
</svg>
