<svg width="79" height="73" viewBox="0 0 79 73" fill="none" xmlns="http://www.w3.org/2000/svg">
<path d="M34.7572 1.09983C38.8101 -1.14499 43.8696 0.159396 46.3558 3.98518L46.6785 4.52241L76.9218 59.1245C77.6421 60.425 78.02 61.8873 78.02 63.3739C78.02 68.0157 74.4139 71.8153 69.8503 72.1238L69.2498 72.1441H8.77177C7.28548 72.1441 5.82357 71.7663 4.52331 71.0463C0.470172 68.802 -1.10861 63.8213 0.815188 59.684L1.09933 59.1254L31.3342 4.52331C32.1314 3.08359 33.3176 1.89722 34.7572 1.09983ZM39.0135 52.6279C36.8637 52.6279 35.1209 54.3707 35.1209 56.5206C35.1209 58.6704 36.8637 60.4132 39.0135 60.4132C41.1634 60.4132 42.9061 58.6704 42.9061 56.5206C42.9061 54.3707 41.1634 52.6279 39.0135 52.6279ZM39.0051 21.4306C37.0061 21.4313 35.3592 22.9367 35.1347 24.8753L35.1086 25.3299L35.1157 44.8226L35.142 45.2771C35.3679 47.2156 37.016 48.7197 39.0149 48.719C41.0139 48.7183 42.6608 47.213 42.8853 45.2743L42.9114 44.8198L42.9043 25.3271L42.8779 24.8725C42.6521 22.934 41.004 21.4299 39.0051 21.4306Z" fill="#979593"/>
</svg>
